# xmcd
#
# Track frame offsets:
#	150
#	18499
#	28858
#	40547
#	48977
#	57710
#	73642
#	82971
#	96435
#	113117
#	130097
#	140918
#	151735
#	165741
#	191170
#	203226
#	224698
#	246479
#	262437
#	273742
#	295837
#	312711
#
# Disc length: 4393
#
# Revision: 2
# Processed by: cddbd v1.5.1PL0 Copyright (c) Steve Scherf et al.
# Submitted via: EasyCDDAExtractor 5.1.0
# Normalized: r1:DSETVAR1
#
DISCID=66112716
DTITLE=Various Artist - Anthologie de la Chanson française_1977
DYEAR=1977
DGENRE=Chanson
TTITLE0=Léo Ferré - La frime
TTITLE1=Yves Simon - De l'autre coté de ton ame
TTITLE2=Yves Simon - Diabolo menthe
TTITLE3=Yves Duteil - Le petit pont de bois
TTITLE4=Yves Duteil - Tarentelle
TTITLE5=Alain Souchon - Allo Maman bobo
TTITLE6=Gilbert Lafaille - Le Président et l'Eléphant
TTITLE7=David Mac Neil - Les bars de Babylone
TTITLE8=Jean Vasca - Amis soyez toujours
TTITLE9=Anne Sylvestre - Comment le m'appelle
TTITLE10=Gilles Vigneault - Gens du Pays
TTITLE11=Gilles Vigneault - Le doux chagrin
TTITLE12=Michel Sardou - Le temps des colonnies
TTITLE13=Julien Clerc - Partir
TTITLE14=Pierre Perret - Au Café du canal
TTITLE15=La Bamboche - Quitte Paris
TTITLE16=Ange - Par les fils de Mandrin
TTITLE17=Eddy Mitchell - La dernière séance
TTITLE18=Renaud - Laisse béton
TTITLE19=Johnny Hallyday - J'ai oublié de vivre
TTITLE20=Françoise Hardy - Flashback
TTITLE21=Guy Marchand - Hey Crooner
EXTD=YEAR: 1977
EXTT0=
EXTT1=
EXTT2=
EXTT3=
EXTT4=
EXTT5=
EXTT6=
EXTT7=
EXTT8=
EXTT9=
EXTT10=
EXTT11=
EXTT12=
EXTT13=
EXTT14=
EXTT15=
EXTT16=
EXTT17=
EXTT18=
EXTT19=
EXTT20=
EXTT21=
PLAYORDER=
